<svg xmlns="http://www.w3.org/2000/svg" xmlns:xlink="http://www.w3.org/1999/xlink" width="40" height="45" viewBox="0 0 40 45">
  <defs>
    <clipPath id="clip-path">
      <rect id="Rectangle_12" data-name="Rectangle 12" width="40" height="45" transform="translate(530 449)" fill="#d9e0e6"/>
    </clipPath>
  </defs>
  <g id="linkedin" transform="translate(-530 -449)" clip-path="url(#clip-path)">
    <g id="linkedin-2" data-name="linkedin" transform="translate(530 451.5)">
      <circle id="Ellipse_7" data-name="Ellipse 7" cx="20" cy="20" r="20" transform="translate(0 0)" fill="#007ab9"/>
      <g id="Group_8" data-name="Group 8">
        <path id="Path_10" data-name="Path 10" d="M31.95,21.609v8.246H27.169V22.162c0-1.932-.69-3.251-2.421-3.251A2.615,2.615,0,0,0,22.3,20.659a3.272,3.272,0,0,0-.158,1.165v8.03H17.357s.064-13.029,0-14.378h4.781v2.038c-.01.016-.023.032-.032.047h.032v-.047a4.747,4.747,0,0,1,4.309-2.375c3.145,0,5.5,2.055,5.5,6.47ZM12.356,8.545a2.491,2.491,0,1,0-.063,4.969h.031a2.492,2.492,0,1,0,.032-4.969ZM9.934,29.855h4.779V15.476H9.934Z" fill="#f1f2f2"/>
      </g>
    </g>
  </g>
</svg>
