<svg xmlns="http://www.w3.org/2000/svg" xmlns:xlink="http://www.w3.org/1999/xlink" width="40" height="38" viewBox="0 0 40 38">
  <defs>
    <clipPath id="clip-path">
      <rect id="Rectangle_8" data-name="Rectangle 8" width="40" height="38" transform="translate(1130 1421)" fill="#d9e0e6"/>
    </clipPath>
  </defs>
  <g id="twitter" transform="translate(-1130 -1421)" clip-path="url(#clip-path)">
    <g id="twitter-2" data-name="twitter" transform="translate(1131 1421)">
      <circle id="Ellipse_3" data-name="Ellipse 3" cx="19" cy="19" r="19" transform="translate(0 0)" fill="#55acee"/>
      <g id="Group_7" data-name="Group 7">
        <path id="Path_9" data-name="Path 9" d="M30.639,13.655a9.061,9.061,0,0,1-2.609.714,4.554,4.554,0,0,0,2-2.512,9.092,9.092,0,0,1-2.884,1.1A4.545,4.545,0,0,0,19.4,17.1a12.892,12.892,0,0,1-9.361-4.746,4.547,4.547,0,0,0,1.405,6.064,4.51,4.51,0,0,1-2.057-.569c0,.019,0,.039,0,.058a4.544,4.544,0,0,0,3.643,4.453,4.559,4.559,0,0,1-2.051.079,4.546,4.546,0,0,0,4.242,3.154A9.168,9.168,0,0,1,8.5,27.474,12.915,12.915,0,0,0,28.385,16.593c0-.2,0-.393-.013-.587a9.21,9.21,0,0,0,2.267-2.351Z" fill="#f1f2f2"/>
      </g>
    </g>
  </g>
</svg>
